<?xml version="1.0" encoding="UTF-8"?>
<svg id="uuid-c643d2a4-f165-4a07-a094-01e6e4214d4c" data-name="Capa 1" xmlns="http://www.w3.org/2000/svg" viewBox="0 0 577.31 142.38">
  <path d="M394.2,1.61c-.09.15-.17.31-.26.46,2.32,2.96,7.8,5.53,7.79,9.46-.07,12.71.04,25.41-.08,38.12-1.67,23.8,3.53,49.31-6.27,71.73-6.98,16.26-27.61,21.14-43.08,14.73-37.34-15.25-19.76-99.6-23.77-134.44h-34.43c-.13.18-.27.36-.4.54,2.46,2.84,7.07,4.96,7.77,8.81.29,24.82-.49,49.69.37,74.48.75,62.86,99.12,78.3,121.76,20.78,4.05-9.26,5.08-19.09,5.07-29.09,0-25.2,0-50.39,0-75.59h-34.49ZM138.29,128.03c-13.17-25.22-30.65-48.16-62.11-38.54,18.02-21.53,32.63-55.44,64.86-55.84V1.73c-1.8-.57-2.82,0-3.84,1.35-33.96,44.63-67.83,89.34-101.9,133.88-.14-.05-.28-.11-.43-.16V1.7H.41l-.41.59c2.25,2.75,8.04,5.55,7.93,9.13-.02,39.86-.01,79.72.03,119.58,0,3.73-5.67,6.6-7.94,9.46.11.16.23.32.34.48,11.35,0,22.7-.07,34.05.05,1.92.02,3.04-.63,4.14-2.09,9.14-12.14,18.31-24.25,27.58-36.29,9.47-13.39,20.64-14.46,28.85.69,6.83,11.99,13.54,24.04,20.24,36.09.65,1.16,1.35,1.6,2.71,1.59,11.59-.14,23.03.12,34.64-.13-5.25-4.37-10.91-6.93-14.28-12.81ZM561.25,26.29c-28.99-36.74-79.99-22.14-120.67-24.66v3.16c26.96.37,38.14,36.16,20.39,56.31-3.39,4.33-7.18,8.35-10.82,12.49-17.61,18.01-12.41,44.51-12.75,67.35,42.44-3.02,96.72,12.77,125.94-27.15,19.26-25.29,18.63-63.27-2.09-87.49ZM547.45,99.12c-9.2,42.51-42.33,39.03-77.3,38.18-29.63-.24-37.28-38.97-19.54-58.39,2.91-3.68,6.11-7.14,9.29-10.59,17.31-16.78,13.24-41.17,13.56-63.04,11.37-.41,22.87-.51,34.24,0,44.8,2.85,46.53,60.1,39.73,93.84ZM171.61,122.09c57.13,56.87,148.47-16.84,109.49-85.08-56.51-92.2-182.92,7.59-109.49,85.08ZM258.89,107.79c-7.53,33.51-56,45.42-74.89,8.13-9.19-21.72-8.59-46.23-5.81-69.23,2.83-28.14,24.5-49.41,53.64-41.11,20.8,5.82,29.04,28.02,30.51,47.64,1.61,19.31,1.37,37.69-3.45,54.57Z" style="fill: #000; stroke-width: 0px;"/>
</svg>